<!DOCTYPE svg PUBLIC "-//W3C//DTD SVG 20010904//EN" "http://www.w3.org/TR/2001/REC-SVG-20010904/DTD/svg10.dtd">
<svg version="1.0" xmlns="http://www.w3.org/2000/svg" width="1078px" height="544px" viewBox="0 0 10780 5440" preserveAspectRatio="xMidYMid meet">
<g id="layer101" fill="#ffffff" stroke="none">
 <path d="M3132 4238 c-11 -11 -17 -58 -8 -58 2 0 11 -3 19 -6 8 -3 25 5 37 18 l21 23 23 -26 c13 -15 35 -61 50 -102 l28 -74 -74 -169 c-72 -164 -75 -169 -106 -172 -18 -2 -32 -7 -32 -13 0 -12 207 -12 215 1 4 6 -9 10 -30 10 -20 0 -35 4 -33 8 34 87 94 222 99 222 3 0 23 -46 44 -102 21 -57 40 -109 42 -115 4 -9 -5 -13 -26 -13 -17 0 -31 -4 -31 -10 0 -6 30 -10 70 -10 40 0 70 4 70 10 0 6 -13 10 -29 10 -28 0 -30 4 -116 233 -49 127 -96 248 -106 269 -32 64 -96 97 -127 66z"/>
 <path d="M4263 4243 l27 -4 0 -285 0 -284 -25 0 c-14 0 -25 -4 -25 -10 0 -6 29 -10 66 -10 57 0 67 3 71 20 5 19 6 19 35 -5 73 -61 196 6 228 125 22 82 -24 176 -107 219 -32 16 -100 14 -128 -5 l-25 -16 0 125 0 126 33 4 c17 2 -15 4 -73 4 -58 0 -93 -2 -77 -4z m262 -267 c35 -53 31 -260 -6 -297 -29 -29 -75 -24 -110 10 -29 29 -29 31 -29 146 0 110 1 117 25 140 34 35 98 35 120 1z"/>
 <path d="M6106 4237 c-22 -16 -18 -46 7 -61 15 -9 22 -7 38 13 30 36 48 19 90 -84 l36 -89 -76 -173 c-71 -165 -76 -173 -103 -173 -15 0 -28 -4 -28 -10 0 -6 42 -10 105 -10 63 0 105 4 105 10 0 6 -15 10 -34 10 l-34 0 50 118 c28 64 51 118 52 119 2 2 23 -51 48 -117 l45 -120 -33 0 c-19 0 -34 -4 -34 -10 0 -13 137 -13 145 -1 3 5 -9 11 -27 13 l-33 3 -95 250 c-103 269 -117 296 -156 313 -32 15 -46 15 -68 -1z"/>
 <path d="M2765 4018 c-16 -6 -43 -20 -58 -31 -27 -19 -29 -19 -42 -1 -8 11 -15 22 -15 27 0 4 -7 7 -15 7 -12 0 -15 -16 -15 -88 0 -49 3 -92 7 -95 3 -4 20 20 35 53 36 73 86 111 156 117 93 8 168 -62 159 -147 -7 -58 -33 -81 -139 -115 -159 -53 -198 -88 -198 -179 0 -132 131 -208 274 -160 45 15 48 15 61 -2 21 -30 26 -13 23 82 -2 59 -6 82 -11 69 -5 -11 -16 -37 -25 -58 -19 -47 -60 -77 -112 -84 -51 -7 -82 1 -119 33 -26 21 -31 33 -31 68 0 63 18 80 117 110 182 55 217 90 211 207 -5 88 -38 141 -111 175 -55 25 -103 29 -152 12z"/>
 <path d="M6985 4018 c-123 -46 -205 -169 -205 -308 0 -221 196 -378 372 -298 70 32 124 86 157 157 35 75 37 202 4 273 -27 59 -96 134 -147 160 -47 24 -139 32 -181 16z m145 -26 c20 -11 45 -37 58 -60 50 -90 51 -363 1 -452 -29 -52 -76 -74 -144 -68 -113 9 -147 67 -153 259 -5 140 7 220 41 271 43 64 129 86 197 50z"/>
 <path d="M1092 3999 c-109 -71 -112 -244 -5 -326 47 -36 126 -39 170 -7 37 28 73 81 73 110 0 24 -1 24 -116 24 l-117 0 5 79 c3 47 10 87 18 96 39 46 119 37 168 -19 16 -19 32 -40 34 -48 3 -7 9 -10 13 -6 12 11 -35 78 -69 99 -44 27 -130 25 -174 -2z m148 -229 c12 -23 4 -68 -18 -92 -20 -23 -74 -23 -95 0 -19 21 -32 74 -24 97 5 11 22 15 66 15 50 0 62 -3 71 -20z"/>
 <path d="M5294 4010 c-31 -12 -85 -70 -100 -107 -32 -75 -3 -170 69 -227 33 -27 47 -31 96 -31 47 0 64 5 93 27 71 54 102 139 78 213 -14 44 -62 100 -101 121 -30 15 -102 18 -135 4z m100 -10 c36 -13 49 -66 44 -192 -4 -124 -16 -148 -78 -148 -63 0 -74 23 -78 159 -4 127 5 166 40 181 30 12 42 12 72 0z"/>
 <path d="M7861 4002 c-106 -53 -135 -201 -58 -289 35 -40 97 -72 139 -73 39 0 107 29 119 52 13 25 3 55 -22 63 -31 10 -51 -13 -47 -54 3 -36 2 -36 -38 -39 -29 -2 -48 3 -65 17 -23 18 -24 26 -27 146 -4 141 4 168 56 178 59 12 135 -30 155 -85 2 -7 8 -10 12 -6 12 11 -30 71 -63 91 -39 22 -117 22 -161 -1z"/>
 <path d="M8711 4003 c-114 -56 -123 -247 -16 -329 65 -49 146 -42 202 18 26 27 55 93 46 102 -4 3 -57 6 -120 6 l-113 0 0 60 c0 114 41 161 120 140 35 -9 75 -46 107 -96 9 -14 12 -15 12 -4 1 26 -37 79 -71 100 -41 25 -120 26 -167 3z m139 -228 c15 -19 6 -71 -17 -97 -9 -10 -30 -18 -48 -18 -38 0 -62 24 -71 68 -11 53 -2 62 64 62 41 0 64 -5 72 -15z"/>
 <path d="M9020 3967 c0 -32 5 -57 10 -57 6 0 10 6 10 14 0 26 42 66 80 76 69 19 141 -29 125 -81 -8 -23 -68 -53 -127 -64 -55 -10 -88 -48 -88 -99 0 -48 19 -80 60 -101 35 -18 70 -19 104 -4 20 9 29 9 41 -1 13 -11 15 -5 15 44 0 36 -4 55 -10 51 -5 -3 -10 -13 -10 -21 0 -8 -11 -26 -25 -39 -46 -47 -135 -24 -135 35 0 27 4 31 58 45 93 26 113 37 133 69 34 55 18 134 -33 170 -28 20 -114 20 -148 1 -22 -12 -27 -11 -42 2 -17 15 -18 13 -18 -40z"/>
 <path d="M9427 4009 c-36 -21 -47 -71 -47 -209 l0 -130 -31 0 c-17 0 -28 -4 -24 -10 3 -5 17 -10 31 -10 22 0 24 -4 24 -47 0 -46 2 -49 41 -70 48 -26 53 -20 47 62 l-3 55 43 0 c23 0 42 5 42 10 0 6 -18 10 -40 10 l-40 0 0 148 c0 166 6 186 55 180 22 -2 34 -11 45 -35 17 -37 35 -44 25 -10 -15 46 -45 67 -99 67 -28 0 -59 -5 -69 -11z"/>
 <path d="M10035 3995 c-66 -65 4 -161 133 -181 l42 -7 0 -62 c0 -73 -11 -88 -67 -83 -36 3 -38 5 -38 38 0 28 -4 36 -21 38 -11 2 -27 -4 -34 -12 -10 -13 -10 -20 3 -40 34 -52 164 -61 212 -16 24 23 25 27 25 172 0 129 2 149 17 155 10 4 23 -2 35 -17 10 -12 21 -21 23 -18 3 3 -4 17 -16 31 -27 36 -100 39 -123 6 l-15 -22 -27 22 c-39 31 -117 29 -149 -4z m158 -22 c13 -12 17 -32 17 -80 l0 -63 -34 0 c-19 0 -45 9 -60 21 -21 17 -26 29 -26 66 0 78 49 104 103 56z"/>
 <path d="M515 4000 c3 -5 22 -10 41 -10 l34 0 0 -285 0 -285 -40 0 c-22 0 -40 -4 -40 -10 0 -6 58 -10 153 -10 139 0 157 2 197 23 25 12 55 38 68 57 20 30 23 45 20 97 -3 53 -9 68 -33 94 -42 44 -83 59 -165 59 l-70 0 0 130 0 130 34 0 c19 0 38 5 41 10 4 6 -38 10 -120 10 -82 0 -124 -4 -120 -10z m307 -301 c64 -34 64 -234 0 -268 -12 -6 -48 -11 -81 -11 l-61 0 0 145 0 145 61 0 c33 0 69 -5 81 -11z"/>
 <path d="M1400 4000 c0 -5 14 -10 30 -10 l30 0 0 -160 0 -160 -30 0 c-16 0 -30 -5 -30 -10 0 -7 27 -10 73 -8 65 3 72 5 75 25 l3 22 36 -25 c50 -34 124 -34 158 1 24 23 25 28 25 170 l0 145 30 0 c17 0 30 5 30 10 0 6 -42 10 -106 10 -67 0 -103 -4 -99 -10 3 -5 19 -10 36 -10 l29 0 0 -138 c0 -173 -14 -202 -83 -171 -46 21 -57 56 -57 188 l0 121 30 0 c17 0 30 5 30 10 0 6 -42 10 -105 10 -63 0 -105 -4 -105 -10z"/>
 <path d="M1885 4000 c3 -5 18 -10 33 -10 l27 0 -2 -157 -2 -158 -30 -3 c-17 -2 -31 -8 -31 -13 0 -6 30 -9 72 -7 72 3 73 3 79 33 4 17 7 24 8 17 2 -23 64 -52 114 -52 38 0 53 5 72 25 24 23 25 28 25 170 l0 145 30 0 c17 0 30 5 30 10 0 6 -42 10 -106 10 -67 0 -103 -4 -99 -10 3 -5 19 -10 36 -10 l29 0 0 -138 c0 -108 -3 -142 -16 -160 -22 -31 -51 -27 -90 12 l-34 34 0 126 0 126 30 0 c17 0 30 5 30 10 0 6 -42 10 -106 10 -67 0 -103 -4 -99 -10z"/>
 <path d="M3555 4000 c3 -5 17 -10 31 -10 l24 0 0 -160 0 -160 -31 0 c-17 0 -28 -4 -24 -10 3 -5 35 -10 71 -10 l64 0 0 32 0 31 23 -20 c35 -33 62 -43 111 -43 46 0 86 24 86 52 0 6 10 2 23 -9 55 -50 143 -62 181 -24 19 20 21 35 24 171 l3 150 24 0 c13 0 27 5 30 10 4 6 -30 10 -94 10 -61 0 -101 -4 -101 -10 0 -5 11 -10 25 -10 l26 0 -3 -151 c-3 -132 -5 -153 -21 -163 -22 -14 -61 6 -91 47 -18 24 -21 45 -24 148 l-4 119 31 0 c17 0 31 5 31 10 0 6 -40 10 -101 10 -64 0 -98 -4 -94 -10 3 -5 17 -10 31 -10 l25 0 -3 -151 c-3 -171 -9 -184 -67 -160 -57 24 -71 63 -71 195 l0 116 30 0 c17 0 30 5 30 10 0 6 -40 10 -101 10 -64 0 -98 -4 -94 -10z"/>
 <path d="M4695 4000 c3 -5 18 -10 33 -10 l27 0 -3 -285 -3 -285 -29 0 c-17 0 -30 -4 -30 -10 0 -6 32 -10 75 -10 l75 0 0 152 0 151 23 -21 c45 -42 115 -54 166 -27 16 8 31 22 35 30 3 9 6 82 6 161 l0 144 29 0 c17 0 33 5 36 10 4 6 -32 10 -99 10 -64 0 -106 -4 -106 -10 0 -5 14 -10 30 -10 l30 0 0 -148 c0 -102 -4 -152 -12 -160 -23 -23 -72 -14 -106 19 l-32 31 0 129 0 129 30 0 c17 0 30 5 30 10 0 6 -42 10 -106 10 -67 0 -103 -4 -99 -10z"/>
 <path d="M5590 4000 c0 -5 14 -10 30 -10 l30 0 0 -160 0 -160 -30 0 c-16 0 -30 -5 -30 -10 0 -7 27 -10 73 -8 l72 3 -3 30 -4 30 24 -21 c36 -33 63 -44 111 -44 29 0 53 7 68 19 23 18 24 25 27 170 l3 151 30 0 c16 0 29 5 29 10 0 6 -42 10 -106 10 -67 0 -103 -4 -99 -10 3 -5 19 -10 36 -10 l29 0 0 -129 c0 -175 -15 -208 -80 -181 -53 22 -64 52 -68 188 l-4 122 30 0 c17 0 34 5 37 10 4 6 -32 10 -99 10 -64 0 -106 -4 -106 -10z"/>
 <path d="M7385 4000 c3 -5 19 -10 36 -10 l29 0 0 -160 0 -160 -36 0 c-21 0 -33 -4 -29 -10 3 -5 37 -10 76 -10 62 0 69 2 69 20 0 19 1 19 35 -1 58 -35 136 -24 150 21 17 52 -37 90 -76 54 -20 -18 -20 -28 -3 -68 6 -17 4 -18 -22 -12 -16 4 -41 19 -56 34 -28 26 -28 27 -28 159 l0 133 30 0 c17 0 30 5 30 10 0 6 -42 10 -106 10 -67 0 -103 -4 -99 -10z"/>
 <path d="M8130 4000 c0 -5 14 -10 30 -10 l30 0 0 -285 0 -285 -30 0 c-16 0 -30 -4 -30 -10 0 -6 30 -10 70 -10 l70 0 0 151 0 151 30 -26 c56 -47 152 -47 190 1 18 23 20 40 20 169 l0 144 30 0 c17 0 30 5 30 10 0 6 -42 10 -106 10 -67 0 -103 -4 -99 -10 3 -5 19 -10 36 -10 l29 0 0 -134 c0 -165 -6 -186 -56 -186 -28 0 -44 8 -70 34 l-34 34 0 126 0 126 30 0 c17 0 30 5 30 10 0 6 -40 10 -100 10 -60 0 -100 -4 -100 -10z"/>
 <path d="M9630 4000 c0 -5 14 -10 30 -10 l30 0 0 -160 0 -160 -30 0 c-16 0 -30 -4 -30 -10 0 -6 30 -10 70 -10 69 0 70 0 70 27 l0 26 24 -22 c62 -58 166 -36 166 36 0 29 -43 52 -68 36 -21 -13 -27 -50 -12 -68 19 -23 -12 -29 -48 -11 -56 29 -62 48 -62 188 l0 128 29 0 c17 0 33 5 36 10 4 6 -32 10 -99 10 -64 0 -106 -4 -106 -10z"/>
 <path d="M2986 2909 c-3 -17 -6 -66 -6 -108 l0 -76 -36 -20 c-19 -10 -51 -36 -70 -58 -34 -38 -124 -207 -124 -234 0 -7 -4 -13 -9 -13 -4 0 -18 61 -30 135 -25 157 -34 185 -59 185 -32 0 -40 -18 -31 -68 74 -425 74 -420 55 -527 -42 -253 -76 -708 -56 -761 23 -60 75 -96 185 -130 47 -14 93 -17 215 -17 170 1 237 15 317 66 76 48 77 50 70 285 -6 207 -20 349 -56 557 -10 61 -17 112 -16 116 9 14 76 426 73 448 -2 18 -10 27 -25 29 -30 4 -36 -13 -63 -174 -12 -71 -26 -133 -30 -137 -4 -5 -13 8 -20 30 -19 59 -78 167 -115 210 -18 21 -49 47 -69 58 l-36 20 0 88 c0 95 -10 127 -39 127 -13 0 -20 -10 -25 -31z m-6 -352 c0 -110 -2 -113 -77 -131 -36 -9 -68 -15 -71 -12 -2 3 11 38 30 79 37 77 94 151 109 141 5 -3 9 -38 9 -77z m120 46 c32 -39 106 -181 98 -189 -3 -2 -37 3 -76 12 l-72 16 0 99 c0 54 4 99 9 99 5 0 24 -17 41 -37z m47 -264 c34 -11 69 -29 78 -39 32 -35 86 -332 101 -551 l7 -96 -69 23 c-144 48 -347 48 -491 1 l-73 -23 0 48 c0 102 51 460 80 560 12 40 39 60 115 84 64 20 182 17 252 -7z m-22 -709 c134 -20 215 -59 215 -105 l0 -24 -45 19 c-149 64 -416 65 -559 2 l-46 -21 0 24 c0 77 233 133 435 105z m109 -168 c61 -22 106 -56 106 -79 0 -20 -68 -60 -135 -79 -91 -26 -307 -23 -397 5 -123 39 -147 85 -69 129 70 40 144 52 296 48 112 -2 152 -7 199 -24z"/>
 <path d="M9600 2920 c-102 -18 -181 -62 -256 -141 -174 -186 -159 -477 45 -821 50 -85 51 -88 51 -168 0 -88 -14 -156 -61 -290 -48 -135 -30 -193 48 -156 49 23 702 414 726 434 20 18 23 65 3 81 -8 6 -72 20 -142 31 -71 10 -154 26 -184 36 -67 20 -161 67 -179 88 -12 14 -8 16 38 16 183 0 378 159 421 342 18 79 12 182 -14 258 l-25 70 94 0 c82 0 96 -2 104 -19 16 -29 62 -44 96 -31 16 6 33 17 37 23 4 7 8 57 8 113 0 87 -3 103 -19 118 -36 33 -113 18 -126 -24 -6 -19 -15 -20 -173 -20 -160 0 -170 1 -242 29 -82 32 -180 44 -250 31z m232 -92 c147 -68 237 -219 226 -378 -7 -87 -42 -165 -107 -233 -72 -76 -144 -109 -248 -115 -106 -6 -127 0 -157 45 -14 20 -24 38 -22 40 1 2 22 -4 46 -12 56 -20 145 -19 210 2 61 20 151 96 179 152 67 132 39 287 -70 385 -67 61 -120 81 -219 80 -104 -1 -143 -17 -215 -85 -76 -72 -100 -131 -99 -244 0 -78 4 -101 33 -170 66 -163 211 -343 313 -390 69 -31 222 -71 318 -82 l75 -8 -337 -202 c-185 -112 -339 -203 -342 -203 -3 0 3 19 13 43 43 102 81 260 81 341 0 68 -12 101 -75 212 -108 187 -151 334 -143 493 3 70 10 99 32 144 35 72 99 138 167 173 75 38 102 43 199 41 67 -3 97 -9 142 -29z m518 -44 c0 -56 -3 -75 -12 -72 -8 3 -14 27 -16 63 -3 62 1 85 18 85 6 0 10 -30 10 -76z m-100 1 c0 -12 -19 -15 -114 -15 -89 0 -116 3 -126 15 -11 13 3 15 114 15 105 0 126 -2 126 -15z m-464 -80 c28 -14 61 -36 74 -50 l23 -25 -24 -26 c-21 -22 -24 -37 -27 -114 -4 -97 -17 -123 -46 -95 -12 13 -16 37 -16 101 0 81 -2 87 -29 115 -40 40 -89 40 -133 0 -32 -29 -33 -31 -36 -124 -4 -97 -12 -115 -43 -97 -9 6 -15 39 -19 103 -4 74 -9 100 -24 116 -19 21 -19 22 5 47 67 74 202 96 295 49z m-85 -230 c7 -103 11 -118 44 -139 40 -26 92 -20 126 13 28 28 29 34 29 115 0 89 14 122 26 61 21 -113 -46 -235 -155 -281 -51 -22 -148 -21 -202 3 -49 22 -114 88 -135 139 -15 37 -19 160 -5 168 5 3 12 -36 16 -87 6 -80 10 -96 33 -119 37 -40 93 -39 133 1 27 28 29 34 29 109 0 96 5 114 34 110 19 -3 22 -11 27 -93z"/>
 <path d="M5530 2880 c-16 -16 -20 -33 -20 -94 0 -69 2 -76 26 -95 15 -12 38 -21 51 -21 l24 0 -3 -618 c-2 -490 -6 -622 -16 -635 -8 -10 -12 -37 -10 -79 l3 -63 151 -3 151 -3 7 32 c3 17 6 41 6 53 0 20 4 21 88 18 83 -3 91 -1 152 30 50 26 82 54 149 131 47 54 94 103 104 109 13 7 39 6 81 -1 82 -14 179 -14 228 1 54 16 122 79 152 141 87 180 5 390 -280 719 -144 167 -385 361 -482 388 -21 5 -148 10 -289 10 -240 0 -254 -1 -273 -20z m652 -112 c222 -151 477 -433 584 -645 40 -78 48 -102 52 -167 8 -124 -41 -216 -134 -252 -40 -15 -57 -16 -162 -5 -162 17 -164 16 -284 -126 -93 -111 -139 -138 -238 -138 -41 0 -87 6 -102 13 -26 11 -28 16 -28 67 0 30 2 55 5 55 3 0 22 -9 42 -20 45 -24 119 -26 170 -5 20 9 80 61 137 119 115 118 143 132 221 115 75 -16 160 -22 200 -15 21 4 50 21 70 42 34 33 35 37 35 110 0 63 -5 84 -29 133 -70 138 -268 353 -456 493 -108 81 -289 175 -364 188 -29 6 -116 10 -192 10 l-139 0 0 45 0 46 264 -3 264 -3 84 -57z m-380 -743 c3 -620 4 -645 22 -658 36 -26 9 -37 -90 -37 -73 0 -94 3 -94 14 0 7 7 19 15 26 13 11 15 96 15 656 l0 644 64 0 65 0 3 -645z m226 584 c293 -142 661 -527 662 -691 0 -53 -34 -90 -86 -92 l-39 -1 -3 145 c-3 141 -3 145 -29 172 -14 15 -30 25 -35 22 -5 -3 -8 -76 -7 -162 l1 -157 -39 3 c-21 2 -41 7 -45 10 -4 4 -10 103 -14 220 l-7 213 -28 20 -29 20 0 -243 -1 -243 -47 -32 -47 -33 -3 318 -2 318 -29 17 -28 16 -6 -97 c-4 -53 -7 -223 -7 -377 l0 -279 -37 -38 c-20 -21 -41 -38 -45 -38 -4 0 -8 200 -8 444 l0 445 -22 15 c-49 35 -48 47 -48 -453 0 -259 -4 -472 -8 -475 -12 -7 -62 20 -94 52 l-28 26 0 498 0 498 28 -5 c15 -4 73 -29 130 -56z"/>
 <path d="M3784 2860 c-41 -27 -60 -64 -48 -95 21 -56 234 -285 681 -735 518 -522 500 -500 548 -674 21 -74 25 -81 46 -79 26 3 314 291 325 325 9 28 -14 48 -55 48 -44 0 -130 24 -186 52 -48 25 -265 235 -265 257 0 9 4 23 10 31 7 12 12 12 29 -4 22 -20 54 -18 58 4 5 26 -556 585 -579 578 -24 -8 -20 -38 12 -78 30 -38 31 -39 10 -50 -19 -10 -32 -1 -123 82 -190 175 -408 358 -425 358 -4 0 -21 -9 -38 -20z m344 -320 c1 -3 -12 -20 -30 -37 l-33 -32 -121 137 c-144 163 -155 179 -135 191 10 7 55 -26 165 -122 83 -71 152 -133 154 -137z m175 -190 c5 -20 16 -31 44 -43 45 -18 78 -52 87 -88 4 -20 18 -31 56 -47 41 -17 54 -28 66 -59 21 -49 42 -73 66 -73 24 0 78 -52 78 -76 0 -24 29 -54 52 -54 22 0 148 -116 148 -136 0 -7 -16 -25 -36 -40 l-35 -27 -364 363 -364 364 27 13 c15 8 34 21 42 29 13 12 21 7 71 -42 32 -31 59 -69 62 -84z m186 6 l33 -34 -22 -12 c-19 -10 -26 -9 -47 13 -18 18 -23 31 -18 46 9 28 16 27 54 -13z m161 -167 c0 -4 -10 -9 -22 -13 -34 -8 -69 31 -57 63 l10 24 34 -33 c19 -19 35 -37 35 -41z m139 -130 c1 -4 -11 -10 -26 -14 -37 -9 -68 23 -59 60 l7 27 39 -34 c21 -18 39 -36 39 -39z m286 -417 c33 -17 81 -36 108 -42 26 -7 47 -15 47 -19 0 -3 -45 -51 -99 -105 l-99 -99 -12 44 c-16 57 -54 132 -98 192 l-35 48 34 35 33 34 30 -29 c17 -16 58 -43 91 -59z"/>
 <path d="M7330 2875 c0 -3 32 -48 71 -100 46 -61 68 -99 63 -107 -4 -7 -27 -39 -50 -71 -61 -83 -84 -150 -84 -250 0 -117 32 -182 146 -293 105 -103 121 -109 167 -60 24 25 43 36 64 36 41 0 114 -50 163 -111 43 -55 46 -69 25 -150 -8 -32 9 -50 110 -118 96 -64 115 -71 200 -71 65 0 82 4 141 35 l67 35 51 -44 c120 -104 129 -113 122 -124 -4 -7 -16 -12 -27 -12 -27 0 -45 -41 -30 -69 16 -29 50 -26 92 8 27 22 39 27 47 19 9 -9 4 -16 -18 -30 -33 -20 -39 -48 -14 -73 19 -18 49 -12 81 17 l22 20 68 -56 c37 -31 74 -56 83 -56 9 0 33 18 55 40 l39 40 -31 38 -30 38 30 42 c30 41 30 42 12 62 -31 34 -85 21 -85 -22 0 -21 -13 -23 -29 -5 -8 11 -6 18 10 33 12 10 27 31 35 46 12 23 12 29 -5 49 -25 32 -69 20 -78 -21 -3 -17 -11 -30 -18 -30 -12 0 -101 94 -185 196 l-38 46 31 59 c33 63 45 147 33 214 -7 36 -107 195 -145 229 -19 18 -25 18 -63 5 -24 -7 -52 -12 -63 -10 -33 5 -108 66 -145 117 -47 66 -46 102 5 154 l38 39 -27 40 c-48 68 -161 170 -223 199 -50 23 -70 27 -153 27 -83 0 -102 -4 -155 -28 -33 -15 -83 -46 -112 -67 -29 -22 -55 -40 -59 -40 -4 0 -45 29 -93 63 -95 71 -111 81 -111 72z m653 -83 c28 -12 78 -52 123 -97 l76 -76 -20 -22 c-74 -78 -56 -163 56 -275 75 -75 119 -96 188 -89 l53 5 41 -55 c62 -81 84 -136 77 -194 -5 -42 -40 -129 -52 -129 -2 0 -63 65 -135 145 -73 80 -139 145 -147 145 -8 0 -53 -38 -100 -84 -73 -72 -84 -86 -75 -103 6 -11 72 -73 146 -139 75 -65 136 -122 136 -126 0 -29 -131 -66 -192 -54 -21 4 -72 30 -114 58 l-76 52 5 47 c9 70 -6 107 -73 181 -62 68 -141 118 -189 118 -13 0 -48 -13 -77 -30 l-53 -30 -69 68 c-92 91 -117 144 -117 247 0 71 4 86 33 140 18 33 40 69 48 80 17 23 -4 41 199 -178 50 -53 96 -97 103 -97 16 0 132 118 132 135 0 13 -80 90 -213 205 -42 36 -74 70 -73 75 4 15 105 74 156 90 58 19 144 13 203 -13z m-167 -353 c6 -10 -23 -49 -36 -49 -4 0 -59 58 -123 129 -82 91 -113 131 -105 139 8 8 46 -21 134 -99 68 -61 127 -115 130 -120z m536 -496 c444 -496 539 -605 535 -609 -3 -3 -170 140 -371 317 l-367 323 43 43 c23 24 45 43 48 43 4 0 54 -53 112 -117z"/>
 <path d="M724 2821 c-327 -94 -438 -497 -204 -745 52 -55 151 -116 189 -116 14 0 27 12 40 38 25 48 41 62 84 69 45 7 93 -19 114 -61 21 -45 11 -81 -34 -123 -45 -43 -40 -66 24 -124 108 -95 248 -129 386 -94 67 17 69 16 90 -2 12 -11 73 -64 135 -118 103 -90 111 -99 97 -115 -19 -21 -19 -34 1 -51 13 -10 20 -10 44 4 35 21 47 7 24 -28 -16 -25 -16 -27 0 -43 16 -16 19 -16 45 -1 30 17 51 10 51 -17 0 -16 67 -74 85 -74 8 0 30 -14 49 -31 41 -36 53 -32 110 31 l37 41 -30 35 c-17 19 -31 41 -31 49 0 23 -58 82 -86 89 -21 6 -25 11 -19 29 17 55 17 67 1 73 -9 3 -27 -1 -41 -10 -28 -18 -41 -6 -25 24 23 42 -16 80 -48 48 -15 -15 -42 9 -164 150 -63 73 -87 109 -83 120 29 76 29 219 0 302 -20 58 -85 142 -130 170 l-37 23 -37 -37 c-28 -27 -50 -39 -79 -43 -37 -5 -45 -2 -77 30 -58 58 -42 137 34 172 29 13 41 24 41 39 -1 66 -109 201 -204 255 -104 60 -236 75 -352 42z m269 -79 c76 -34 135 -80 172 -135 l35 -51 -39 -41 c-50 -52 -61 -74 -61 -125 0 -56 20 -99 63 -137 61 -53 149 -57 216 -8 l36 26 27 -32 c55 -66 72 -116 73 -216 0 -50 -3 -94 -6 -98 -4 -3 -31 20 -60 51 -76 80 -91 94 -105 94 -20 0 -174 -154 -174 -173 0 -18 1 -19 94 -106 31 -29 54 -56 51 -60 -4 -3 -48 -6 -98 -6 -80 0 -99 4 -148 27 -30 15 -65 38 -78 52 l-22 23 25 38 c46 67 46 128 0 197 -64 99 -212 102 -287 7 l-25 -32 -33 21 c-19 11 -52 39 -73 61 l-39 40 48 43 c61 54 84 105 85 186 0 85 -36 153 -108 203 -29 21 -22 38 31 82 50 41 112 74 164 87 59 15 184 5 236 -18z m-449 -227 c50 -46 72 -145 45 -198 -16 -31 -71 -87 -85 -87 -21 0 -39 71 -39 155 0 85 18 155 39 155 7 0 25 -11 40 -25z m1024 -782 c276 -309 294 -331 282 -338 -13 -8 -5 -15 -244 195 -110 96 -233 204 -273 239 l-74 64 43 44 c40 41 43 42 59 26 9 -10 102 -113 207 -230z m399 -424 c12 -24 20 -45 19 -47 -4 -4 -79 29 -94 41 -10 8 -8 15 10 34 29 30 38 26 65 -28z"/>
 <path d="M960 2394 c-23 -60 -14 -82 67 -165 42 -43 85 -81 95 -85 20 -6 48 11 48 30 0 6 -32 44 -70 85 -56 59 -70 80 -70 105 0 57 -52 79 -70 30z"/>
 <path d="M821 2266 c-22 -26 4 -56 46 -56 32 0 46 -9 109 -70 73 -71 90 -80 112 -58 22 22 13 38 -66 118 l-79 80 -55 0 c-36 0 -60 -5 -67 -14z"/>
 <path d="M1252 2758 c-19 -19 -15 -32 23 -68 34 -33 35 -37 35 -106 l0 -72 348 -340 c191 -187 360 -350 375 -363 40 -31 51 -14 56 83 l3 80 -133 135 c-216 218 -677 663 -687 663 -4 0 -13 -5 -20 -12z m452 -498 c263 -261 335 -340 309 -340 -2 0 -145 140 -318 312 -275 271 -336 338 -309 338 3 0 147 -140 318 -310z"/>
 </g>

</svg>